<svg xmlns="http://www.w3.org/2000/svg" version="1.1" xmlns:xlink="http://www.w3.org/1999/xlink" xmlns:svgjs="http://svgjs.dev/svgjs" width="1440" height="560" preserveAspectRatio="none" viewBox="0 0 1440 560"><g mask="url(&quot;#SvgjsMask1000&quot;)" fill="none"><rect width="1440" height="560" x="0" y="0" fill="#0e2a47"></rect><path d="M-105.93 360.42L-105.93 360.42" stroke="#132e65" stroke-width="1.5"></path><path d="M-105.93 360.42L83.44 342.99" stroke="#132e65" stroke-width="1.5"></path><path d="M-105.93 360.42L-61.83 555.34" stroke="#132e65" stroke-width="1.5"></path><path d="M-105.93 360.42L49.71 520.15" stroke="#132e65" stroke-width="1.5"></path><path d="M-61.83 555.34L-61.83 555.34" stroke="#132e65" stroke-width="1.5"></path><path d="M-61.83 555.34L49.71 520.15" stroke="#132e65" stroke-width="1.5"></path><path d="M-61.83 555.34L-91.18 683.43" stroke="#132e65" stroke-width="1.5"></path><path d="M-91.18 683.43L-91.18 683.43" stroke="#132e65" stroke-width="1.5"></path><path d="M-91.18 683.43L108.38 691.66" stroke="#132e65" stroke-width="1.5"></path><path d="M-91.18 683.43L49.71 520.15" stroke="#132e65" stroke-width="1.5"></path><path d="M-91.18 683.43L-105.93 360.42" stroke="#132e65" stroke-width="1.5"></path><path d="M-91.18 683.43L236.94 679.18" stroke="#132e65" stroke-width="1.5"></path><path d="M83.44 342.99L83.44 342.99" stroke="#132e65" stroke-width="1.5"></path><path d="M83.44 342.99L214.27 344.82" stroke="#132e65" stroke-width="1.5"></path><path d="M83.44 342.99L49.71 520.15" stroke="#132e65" stroke-width="1.5"></path><path d="M83.44 342.99L198.13 500.23" stroke="#132e65" stroke-width="1.5"></path><path d="M83.44 342.99L-61.83 555.34" stroke="#132e65" stroke-width="1.5"></path><path d="M49.71 520.15L49.71 520.15" stroke="#132e65" stroke-width="1.5"></path><path d="M49.71 520.15L198.13 500.23" stroke="#132e65" stroke-width="1.5"></path><path d="M49.71 520.15L108.38 691.66" stroke="#132e65" stroke-width="1.5"></path><path d="M108.38 691.66L108.38 691.66" stroke="#132e65" stroke-width="1.5"></path><path d="M108.38 691.66L236.94 679.18" stroke="#132e65" stroke-width="1.5"></path><path d="M214.27 344.82L214.27 344.82" stroke="#132e65" stroke-width="1.5"></path><path d="M214.27 344.82L366.49 349.97" stroke="#132e65" stroke-width="1.5"></path><path d="M214.27 344.82L198.13 500.23" stroke="#132e65" stroke-width="1.5"></path><path d="M198.13 500.23L198.13 500.23" stroke="#132e65" stroke-width="1.5"></path><path d="M198.13 500.23L352.43 539.77" stroke="#132e65" stroke-width="1.5"></path><path d="M198.13 500.23L236.94 679.18" stroke="#132e65" stroke-width="1.5"></path><path d="M236.94 679.18L236.94 679.18" stroke="#132e65" stroke-width="1.5"></path><path d="M236.94 679.18L356.84 700.09" stroke="#132e65" stroke-width="1.5"></path><path d="M236.94 679.18L352.43 539.77" stroke="#132e65" stroke-width="1.5"></path><path d="M236.94 679.18L49.71 520.15" stroke="#132e65" stroke-width="1.5"></path><path d="M366.49 349.97L366.49 349.97" stroke="#132e65" stroke-width="1.5"></path><path d="M366.49 349.97L524.72 338.87" stroke="#132e65" stroke-width="1.5"></path><path d="M366.49 349.97L352.43 539.77" stroke="#132e65" stroke-width="1.5"></path><path d="M366.49 349.97L198.13 500.23" stroke="#132e65" stroke-width="1.5"></path><path d="M366.49 349.97L546.98 499.83" stroke="#132e65" stroke-width="1.5"></path><path d="M366.49 349.97L643.1 396.71" stroke="#132e65" stroke-width="1.5"></path><path d="M352.43 539.77L352.43 539.77" stroke="#132e65" stroke-width="1.5"></path><path d="M352.43 539.77L356.84 700.09" stroke="#132e65" stroke-width="1.5"></path><path d="M352.43 539.77L546.98 499.83" stroke="#132e65" stroke-width="1.5"></path><path d="M352.43 539.77L517.66 704.36" stroke="#132e65" stroke-width="1.5"></path><path d="M356.84 700.09L356.84 700.09" stroke="#132e65" stroke-width="1.5"></path><path d="M356.84 700.09L517.66 704.36" stroke="#132e65" stroke-width="1.5"></path><path d="M524.72 338.87L524.72 338.87" stroke="#132e65" stroke-width="1.5"></path><path d="M524.72 338.87L643.1 396.71" stroke="#132e65" stroke-width="1.5"></path><path d="M546.98 499.83L546.98 499.83" stroke="#132e65" stroke-width="1.5"></path><path d="M546.98 499.83L643.1 396.71" stroke="#132e65" stroke-width="1.5"></path><path d="M546.98 499.83L697.8 491.71" stroke="#132e65" stroke-width="1.5"></path><path d="M517.66 704.36L517.66 704.36" stroke="#132e65" stroke-width="1.5"></path><path d="M517.66 704.36L689.9 645.35" stroke="#132e65" stroke-width="1.5"></path><path d="M517.66 704.36L546.98 499.83" stroke="#132e65" stroke-width="1.5"></path><path d="M643.1 396.71L643.1 396.71" stroke="#132e65" stroke-width="1.5"></path><path d="M643.1 396.71L697.8 491.71" stroke="#132e65" stroke-width="1.5"></path><path d="M643.1 396.71L862.39 405.55" stroke="#132e65" stroke-width="1.5"></path><path d="M643.1 396.71L828.73 515.85" stroke="#132e65" stroke-width="1.5"></path><path d="M697.8 491.71L697.8 491.71" stroke="#132e65" stroke-width="1.5"></path><path d="M697.8 491.71L828.73 515.85" stroke="#132e65" stroke-width="1.5"></path><path d="M697.8 491.71L689.9 645.35" stroke="#132e65" stroke-width="1.5"></path><path d="M697.8 491.71L862.39 405.55" stroke="#132e65" stroke-width="1.5"></path><path d="M689.9 645.35L689.9 645.35" stroke="#132e65" stroke-width="1.5"></path><path d="M862.39 405.55L862.39 405.55" stroke="#132e65" stroke-width="1.5"></path><path d="M862.39 405.55L958.98 409.4" stroke="#132e65" stroke-width="1.5"></path><path d="M862.39 405.55L828.73 515.85" stroke="#132e65" stroke-width="1.5"></path><path d="M862.39 405.55L942.7 533.79" stroke="#132e65" stroke-width="1.5"></path><path d="M862.39 405.55L957.9 261.43" stroke="#132e65" stroke-width="1.5"></path><path d="M828.73 515.85L828.73 515.85" stroke="#132e65" stroke-width="1.5"></path><path d="M836.65 700.86L836.65 700.86" stroke="#132e65" stroke-width="1.5"></path><path d="M836.65 700.86L951.09 703.72" stroke="#132e65" stroke-width="1.5"></path><path d="M836.65 700.86L689.9 645.35" stroke="#132e65" stroke-width="1.5"></path><path d="M969.81 -84L969.81 -84" stroke="#132e65" stroke-width="1.5"></path><path d="M969.81 -84L937.6 77.99" stroke="#132e65" stroke-width="1.5"></path><path d="M969.81 -84L1140.83 80.36" stroke="#132e65" stroke-width="1.5"></path><path d="M969.81 -84L1260.45 -111.95" stroke="#132e65" stroke-width="1.5"></path><path d="M937.6 77.99L937.6 77.99" stroke="#132e65" stroke-width="1.5"></path><path d="M937.6 77.99L957.9 261.43" stroke="#132e65" stroke-width="1.5"></path><path d="M937.6 77.99L1140.83 80.36" stroke="#132e65" stroke-width="1.5"></path><path d="M937.6 77.99L1101.37 255.26" stroke="#132e65" stroke-width="1.5"></path><path d="M937.6 77.99L958.98 409.4" stroke="#132e65" stroke-width="1.5"></path><path d="M957.9 261.43L957.9 261.43" stroke="#132e65" stroke-width="1.5"></path><path d="M957.9 261.43L1101.37 255.26" stroke="#132e65" stroke-width="1.5"></path><path d="M957.9 261.43L958.98 409.4" stroke="#132e65" stroke-width="1.5"></path><path d="M958.98 409.4L958.98 409.4" stroke="#132e65" stroke-width="1.5"></path><path d="M958.98 409.4L942.7 533.79" stroke="#132e65" stroke-width="1.5"></path><path d="M958.98 409.4L828.73 515.85" stroke="#132e65" stroke-width="1.5"></path><path d="M942.7 533.79L942.7 533.79" stroke="#132e65" stroke-width="1.5"></path><path d="M942.7 533.79L828.73 515.85" stroke="#132e65" stroke-width="1.5"></path><path d="M942.7 533.79L951.09 703.72" stroke="#132e65" stroke-width="1.5"></path><path d="M942.7 533.79L1137.95 539.1" stroke="#132e65" stroke-width="1.5"></path><path d="M951.09 703.72L951.09 703.72" stroke="#132e65" stroke-width="1.5"></path><path d="M951.09 703.72L1131.46 657.67" stroke="#132e65" stroke-width="1.5"></path><path d="M951.09 703.72L828.73 515.85" stroke="#132e65" stroke-width="1.5"></path><path d="M951.09 703.72L1137.95 539.1" stroke="#132e65" stroke-width="1.5"></path><path d="M1140.83 80.36L1140.83 80.36" stroke="#132e65" stroke-width="1.5"></path><path d="M1140.83 80.36L1275.02 112.37" stroke="#132e65" stroke-width="1.5"></path><path d="M1140.83 80.36L1101.37 255.26" stroke="#132e65" stroke-width="1.5"></path><path d="M1101.37 255.26L1101.37 255.26" stroke="#132e65" stroke-width="1.5"></path><path d="M1101.37 255.26L1138.66 410.23" stroke="#132e65" stroke-width="1.5"></path><path d="M1101.37 255.26L1308.54 254.71" stroke="#132e65" stroke-width="1.5"></path><path d="M1138.66 410.23L1138.66 410.23" stroke="#132e65" stroke-width="1.5"></path><path d="M1138.66 410.23L1137.95 539.1" stroke="#132e65" stroke-width="1.5"></path><path d="M1138.66 410.23L1285.46 405.86" stroke="#132e65" stroke-width="1.5"></path><path d="M1138.66 410.23L1281.99 498.98" stroke="#132e65" stroke-width="1.5"></path><path d="M1137.95 539.1L1137.95 539.1" stroke="#132e65" stroke-width="1.5"></path><path d="M1137.95 539.1L1131.46 657.67" stroke="#132e65" stroke-width="1.5"></path><path d="M1137.95 539.1L1281.99 498.98" stroke="#132e65" stroke-width="1.5"></path><path d="M1137.95 539.1L1244.07 648.64" stroke="#132e65" stroke-width="1.5"></path><path d="M1131.46 657.67L1131.46 657.67" stroke="#132e65" stroke-width="1.5"></path><path d="M1131.46 657.67L1244.07 648.64" stroke="#132e65" stroke-width="1.5"></path><path d="M1131.46 657.67L1281.99 498.98" stroke="#132e65" stroke-width="1.5"></path><path d="M1260.45 -111.95L1260.45 -111.95" stroke="#132e65" stroke-width="1.5"></path><path d="M1260.45 -111.95L1403.58 -80.23" stroke="#132e65" stroke-width="1.5"></path><path d="M1260.45 -111.95L1275.02 112.37" stroke="#132e65" stroke-width="1.5"></path><path d="M1275.02 112.37L1275.02 112.37" stroke="#132e65" stroke-width="1.5"></path><path d="M1275.02 112.37L1409.27 107.92" stroke="#132e65" stroke-width="1.5"></path><path d="M1275.02 112.37L1308.54 254.71" stroke="#132e65" stroke-width="1.5"></path><path d="M1275.02 112.37L1388.38 256.95" stroke="#132e65" stroke-width="1.5"></path><path d="M1275.02 112.37L1101.37 255.26" stroke="#132e65" stroke-width="1.5"></path><path d="M1308.54 254.71L1308.54 254.71" stroke="#132e65" stroke-width="1.5"></path><path d="M1308.54 254.71L1388.38 256.95" stroke="#132e65" stroke-width="1.5"></path><path d="M1308.54 254.71L1285.46 405.86" stroke="#132e65" stroke-width="1.5"></path><path d="M1308.54 254.71L1426.95 353.28" stroke="#132e65" stroke-width="1.5"></path><path d="M1308.54 254.71L1409.27 107.92" stroke="#132e65" stroke-width="1.5"></path><path d="M1285.46 405.86L1285.46 405.86" stroke="#132e65" stroke-width="1.5"></path><path d="M1285.46 405.86L1281.99 498.98" stroke="#132e65" stroke-width="1.5"></path><path d="M1285.46 405.86L1426.95 353.28" stroke="#132e65" stroke-width="1.5"></path><path d="M1285.46 405.86L1388.38 256.95" stroke="#132e65" stroke-width="1.5"></path><path d="M1285.46 405.86L1428.59 533.33" stroke="#132e65" stroke-width="1.5"></path><path d="M1281.99 498.98L1281.99 498.98" stroke="#132e65" stroke-width="1.5"></path><path d="M1244.07 648.64L1244.07 648.64" stroke="#132e65" stroke-width="1.5"></path><path d="M1244.07 648.64L1281.99 498.98" stroke="#132e65" stroke-width="1.5"></path><path d="M1244.07 648.64L1449.53 710.27" stroke="#132e65" stroke-width="1.5"></path><path d="M1244.07 648.64L1428.59 533.33" stroke="#132e65" stroke-width="1.5"></path><path d="M1244.07 648.64L1285.46 405.86" stroke="#132e65" stroke-width="1.5"></path><path d="M1403.58 -80.23L1403.58 -80.23" stroke="#132e65" stroke-width="1.5"></path><path d="M1403.58 -80.23L1539.96 -49.95" stroke="#132e65" stroke-width="1.5"></path><path d="M1403.58 -80.23L1409.27 107.92" stroke="#132e65" stroke-width="1.5"></path><path d="M1403.58 -80.23L1275.02 112.37" stroke="#132e65" stroke-width="1.5"></path><path d="M1403.58 -80.23L1611.86 97.52" stroke="#132e65" stroke-width="1.5"></path><path d="M1409.27 107.92L1409.27 107.92" stroke="#132e65" stroke-width="1.5"></path><path d="M1409.27 107.92L1388.38 256.95" stroke="#132e65" stroke-width="1.5"></path><path d="M1388.38 256.95L1388.38 256.95" stroke="#132e65" stroke-width="1.5"></path><path d="M1388.38 256.95L1426.95 353.28" stroke="#132e65" stroke-width="1.5"></path><path d="M1388.38 256.95L1562.66 261.16" stroke="#132e65" stroke-width="1.5"></path><path d="M1426.95 353.28L1426.95 353.28" stroke="#132e65" stroke-width="1.5"></path><path d="M1428.59 533.33L1428.59 533.33" stroke="#132e65" stroke-width="1.5"></path><path d="M1428.59 533.33L1558.04 562.31" stroke="#132e65" stroke-width="1.5"></path><path d="M1428.59 533.33L1281.99 498.98" stroke="#132e65" stroke-width="1.5"></path><path d="M1428.59 533.33L1449.53 710.27" stroke="#132e65" stroke-width="1.5"></path><path d="M1449.53 710.27L1449.53 710.27" stroke="#132e65" stroke-width="1.5"></path><path d="M1449.53 710.27L1608.29 711.4" stroke="#132e65" stroke-width="1.5"></path><path d="M1449.53 710.27L1558.04 562.31" stroke="#132e65" stroke-width="1.5"></path><path d="M1449.53 710.27L1281.99 498.98" stroke="#132e65" stroke-width="1.5"></path><path d="M1449.53 710.27L1131.46 657.67" stroke="#132e65" stroke-width="1.5"></path><path d="M1539.96 -49.95L1539.96 -49.95" stroke="#132e65" stroke-width="1.5"></path><path d="M1539.96 -49.95L1611.86 97.52" stroke="#132e65" stroke-width="1.5"></path><path d="M1539.96 -49.95L1409.27 107.92" stroke="#132e65" stroke-width="1.5"></path><path d="M1539.96 -49.95L1260.45 -111.95" stroke="#132e65" stroke-width="1.5"></path><path d="M1611.86 97.52L1611.86 97.52" stroke="#132e65" stroke-width="1.5"></path><path d="M1611.86 97.52L1562.66 261.16" stroke="#132e65" stroke-width="1.5"></path><path d="M1562.66 261.16L1562.66 261.16" stroke="#132e65" stroke-width="1.5"></path><path d="M1562.66 261.16L1585 402.19" stroke="#132e65" stroke-width="1.5"></path><path d="M1585 402.19L1585 402.19" stroke="#132e65" stroke-width="1.5"></path><path d="M1585 402.19L1558.04 562.31" stroke="#132e65" stroke-width="1.5"></path><path d="M1585 402.19L1426.95 353.28" stroke="#132e65" stroke-width="1.5"></path><path d="M1585 402.19L1428.59 533.33" stroke="#132e65" stroke-width="1.5"></path><path d="M1585 402.19L1388.38 256.95" stroke="#132e65" stroke-width="1.5"></path><path d="M1585 402.19L1285.46 405.86" stroke="#132e65" stroke-width="1.5"></path><path d="M1558.04 562.31L1558.04 562.31" stroke="#132e65" stroke-width="1.5"></path><path d="M1558.04 562.31L1608.29 711.4" stroke="#132e65" stroke-width="1.5"></path><path d="M1608.29 711.4L1608.29 711.4" stroke="#132e65" stroke-width="1.5"></path><path d="M1608.29 711.4L1428.59 533.33" stroke="#132e65" stroke-width="1.5"></path><path d="M1608.29 711.4L1585 402.19" stroke="#132e65" stroke-width="1.5"></path><path d="M1608.29 711.4L1244.07 648.64" stroke="#132e65" stroke-width="1.5"></path><circle r="5" cx="-105.93" cy="360.42" fill="#132e65"></circle><circle r="5" cx="-61.83" cy="555.34" fill="#132e65"></circle><circle r="5" cx="-91.18" cy="683.43" fill="#132e65"></circle><circle r="5" cx="83.44" cy="342.99" fill="#132e65"></circle><circle r="5" cx="49.71" cy="520.15" fill="#132e65"></circle><circle r="5" cx="108.38" cy="691.66" fill="#132e65"></circle><circle r="5" cx="214.27" cy="344.82" fill="#132e65"></circle><circle r="5" cx="198.13" cy="500.23" fill="#132e65"></circle><circle r="5" cx="236.94" cy="679.18" fill="#132e65"></circle><circle r="5" cx="366.49" cy="349.97" fill="#132e65"></circle><circle r="5" cx="352.43" cy="539.77" fill="#132e65"></circle><circle r="5" cx="356.84" cy="700.09" fill="#132e65"></circle><circle r="5" cx="524.72" cy="338.87" fill="#132e65"></circle><circle r="5" cx="546.98" cy="499.83" fill="#132e65"></circle><circle r="5" cx="517.66" cy="704.36" fill="#132e65"></circle><circle r="5" cx="643.1" cy="396.71" fill="#132e65"></circle><circle r="5" cx="697.8" cy="491.71" fill="#132e65"></circle><circle r="5" cx="689.9" cy="645.35" fill="#132e65"></circle><circle r="5" cx="862.39" cy="405.55" fill="#132e65"></circle><circle r="5" cx="828.73" cy="515.85" fill="#132e65"></circle><circle r="5" cx="836.65" cy="700.86" fill="#132e65"></circle><circle r="5" cx="969.81" cy="-84" fill="#132e65"></circle><circle r="5" cx="937.6" cy="77.99" fill="#132e65"></circle><circle r="5" cx="957.9" cy="261.43" fill="#132e65"></circle><circle r="5" cx="958.98" cy="409.4" fill="#132e65"></circle><circle r="5" cx="942.7" cy="533.79" fill="#132e65"></circle><circle r="5" cx="951.09" cy="703.72" fill="#132e65"></circle><circle r="5" cx="1140.83" cy="80.36" fill="#132e65"></circle><circle r="5" cx="1101.37" cy="255.26" fill="#132e65"></circle><circle r="5" cx="1138.66" cy="410.23" fill="#132e65"></circle><circle r="5" cx="1137.95" cy="539.1" fill="#132e65"></circle><circle r="5" cx="1131.46" cy="657.67" fill="#132e65"></circle><circle r="5" cx="1260.45" cy="-111.95" fill="#132e65"></circle><circle r="5" cx="1275.02" cy="112.37" fill="#132e65"></circle><circle r="5" cx="1308.54" cy="254.71" fill="#132e65"></circle><circle r="5" cx="1285.46" cy="405.86" fill="#132e65"></circle><circle r="5" cx="1281.99" cy="498.98" fill="#132e65"></circle><circle r="5" cx="1244.07" cy="648.64" fill="#132e65"></circle><circle r="5" cx="1403.58" cy="-80.23" fill="#132e65"></circle><circle r="5" cx="1409.27" cy="107.92" fill="#132e65"></circle><circle r="5" cx="1388.38" cy="256.95" fill="#132e65"></circle><circle r="5" cx="1426.95" cy="353.28" fill="#132e65"></circle><circle r="5" cx="1428.59" cy="533.33" fill="#132e65"></circle><circle r="5" cx="1449.53" cy="710.27" fill="#132e65"></circle><circle r="5" cx="1539.96" cy="-49.95" fill="#132e65"></circle><circle r="5" cx="1611.86" cy="97.52" fill="#132e65"></circle><circle r="5" cx="1562.66" cy="261.16" fill="#132e65"></circle><circle r="5" cx="1585" cy="402.19" fill="#132e65"></circle><circle r="5" cx="1558.04" cy="562.31" fill="#132e65"></circle><circle r="5" cx="1608.29" cy="711.4" fill="#132e65"></circle><path d="M1128.22 108.05L1128.22 108.05" stroke="hsl(228.5, 77.2%, 51.5%)" stroke-width="1.5"></path><path d="M1128.22 108.05L1159.4 239.5" stroke="hsl(228.5, 77.2%, 51.5%)" stroke-width="1.5"></path><path d="M1144.32 497.11L1144.32 497.11" stroke="hsl(228.5, 77.2%, 51.5%)" stroke-width="1.5"></path><path d="M1144.32 497.11L1131.05 385.17" stroke="hsl(228.5, 77.2%, 51.5%)" stroke-width="1.5"></path><path d="M1144.32 497.11L1252.04 543.96" stroke="hsl(228.5, 77.2%, 51.5%)" stroke-width="1.5"></path><path d="M1261.68 72.04L1261.68 72.04" stroke="hsl(228.5, 77.2%, 51.5%)" stroke-width="1.5"></path><path d="M1261.68 72.04L1128.22 108.05" stroke="hsl(228.5, 77.2%, 51.5%)" stroke-width="1.5"></path><path d="M1261.68 72.04L1282.83 222.05" stroke="hsl(228.5, 77.2%, 51.5%)" stroke-width="1.5"></path><path d="M1261.68 72.04L1444.38 66.57" stroke="hsl(228.5, 77.2%, 51.5%)" stroke-width="1.5"></path><path d="M1261.68 72.04L1310.59 -104.18" stroke="hsl(228.5, 77.2%, 51.5%)" stroke-width="1.5"></path><path d="M1261.68 72.04L1407.98 -38.46" stroke="hsl(228.5, 77.2%, 51.5%)" stroke-width="1.5"></path><path d="M1261.68 72.04L1159.4 239.5" stroke="hsl(228.5, 77.2%, 51.5%)" stroke-width="1.5"></path><path d="M1451.49 234.52L1451.49 234.52" stroke="hsl(228.5, 77.2%, 51.5%)" stroke-width="1.5"></path><path d="M1451.49 234.52L1418.26 357.13" stroke="hsl(228.5, 77.2%, 51.5%)" stroke-width="1.5"></path><path d="M1451.49 234.52L1608.3 208.65" stroke="hsl(228.5, 77.2%, 51.5%)" stroke-width="1.5"></path><path d="M1451.49 234.52L1444.38 66.57" stroke="hsl(228.5, 77.2%, 51.5%)" stroke-width="1.5"></path><path d="M1451.49 234.52L1282.83 222.05" stroke="hsl(228.5, 77.2%, 51.5%)" stroke-width="1.5"></path><path d="M1451.49 234.52L1596.35 87.94" stroke="hsl(228.5, 77.2%, 51.5%)" stroke-width="1.5"></path><path d="M1451.49 234.52L1312.24 411.76" stroke="hsl(228.5, 77.2%, 51.5%)" stroke-width="1.5"></path><path d="M1418.26 357.13L1418.26 357.13" stroke="hsl(228.5, 77.2%, 51.5%)" stroke-width="1.5"></path><path d="M1418.26 357.13L1312.24 411.76" stroke="hsl(228.5, 77.2%, 51.5%)" stroke-width="1.5"></path><path d="M1418.26 357.13L1282.83 222.05" stroke="hsl(228.5, 77.2%, 51.5%)" stroke-width="1.5"></path><path d="M1608.3 208.65L1608.3 208.65" stroke="hsl(228.5, 77.2%, 51.5%)" stroke-width="1.5"></path><path d="M1608.3 208.65L1596.35 87.94" stroke="hsl(228.5, 77.2%, 51.5%)" stroke-width="1.5"></path><path d="M1545.77 709.72L1545.77 709.72" stroke="hsl(228.5, 77.2%, 51.5%)" stroke-width="1.5"></path><path d="M1545.77 709.72L1440.64 665.67" stroke="hsl(228.5, 77.2%, 51.5%)" stroke-width="1.5"></path><path d="M1545.77 709.72L1425.08 555.26" stroke="hsl(228.5, 77.2%, 51.5%)" stroke-width="1.5"></path><path d="M1545.77 709.72L1574.59 489.34" stroke="hsl(228.5, 77.2%, 51.5%)" stroke-width="1.5"></path><path d="M1545.77 709.72L1252.04 543.96" stroke="hsl(228.5, 77.2%, 51.5%)" stroke-width="1.5"></path><path d="M1545.77 709.72L1418.26 357.13" stroke="hsl(228.5, 77.2%, 51.5%)" stroke-width="1.5"></path><path d="M-104.36 513.95L-104.36 513.95" stroke="hsl(228.5, 77.2%, 51.5%)" stroke-width="1.5"></path><path d="M-104.36 513.95L51.76 500.36" stroke="hsl(228.5, 77.2%, 51.5%)" stroke-width="1.5"></path><path d="M-50.98 695.41L-50.98 695.41" stroke="hsl(228.5, 77.2%, 51.5%)" stroke-width="1.5"></path><path d="M-50.98 695.41L46.82 662.04" stroke="hsl(228.5, 77.2%, 51.5%)" stroke-width="1.5"></path><path d="M-50.98 695.41L-104.36 513.95" stroke="hsl(228.5, 77.2%, 51.5%)" stroke-width="1.5"></path><path d="M-50.98 695.41L51.76 500.36" stroke="hsl(228.5, 77.2%, 51.5%)" stroke-width="1.5"></path><path d="M-50.98 695.41L216.58 537.48" stroke="hsl(228.5, 77.2%, 51.5%)" stroke-width="1.5"></path><path d="M-50.98 695.41L393.48 650" stroke="hsl(228.5, 77.2%, 51.5%)" stroke-width="1.5"></path><path d="M-50.98 695.41L382.53 528.27" stroke="hsl(228.5, 77.2%, 51.5%)" stroke-width="1.5"></path><path d="M51.76 500.36L51.76 500.36" stroke="hsl(228.5, 77.2%, 51.5%)" stroke-width="1.5"></path><path d="M51.76 500.36L46.82 662.04" stroke="hsl(228.5, 77.2%, 51.5%)" stroke-width="1.5"></path><path d="M51.76 500.36L216.58 537.48" stroke="hsl(228.5, 77.2%, 51.5%)" stroke-width="1.5"></path><path d="M51.76 500.36L382.53 528.27" stroke="hsl(228.5, 77.2%, 51.5%)" stroke-width="1.5"></path><path d="M51.76 500.36L393.48 650" stroke="hsl(228.5, 77.2%, 51.5%)" stroke-width="1.5"></path><path d="M46.82 662.04L46.82 662.04" stroke="hsl(228.5, 77.2%, 51.5%)" stroke-width="1.5"></path><path d="M46.82 662.04L216.58 537.48" stroke="hsl(228.5, 77.2%, 51.5%)" stroke-width="1.5"></path><path d="M46.82 662.04L-104.36 513.95" stroke="hsl(228.5, 77.2%, 51.5%)" stroke-width="1.5"></path><path d="M216.58 537.48L216.58 537.48" stroke="hsl(228.5, 77.2%, 51.5%)" stroke-width="1.5"></path><path d="M216.58 537.48L382.53 528.27" stroke="hsl(228.5, 77.2%, 51.5%)" stroke-width="1.5"></path><path d="M216.58 537.48L393.48 650" stroke="hsl(228.5, 77.2%, 51.5%)" stroke-width="1.5"></path><path d="M216.58 537.48L-104.36 513.95" stroke="hsl(228.5, 77.2%, 51.5%)" stroke-width="1.5"></path><path d="M382.53 528.27L382.53 528.27" stroke="hsl(228.5, 77.2%, 51.5%)" stroke-width="1.5"></path><path d="M382.53 528.27L393.48 650" stroke="hsl(228.5, 77.2%, 51.5%)" stroke-width="1.5"></path><path d="M382.53 528.27L544.6 505.84" stroke="hsl(228.5, 77.2%, 51.5%)" stroke-width="1.5"></path><path d="M382.53 528.27L533.1 690.85" stroke="hsl(228.5, 77.2%, 51.5%)" stroke-width="1.5"></path><path d="M382.53 528.27L662.21 399.21" stroke="hsl(228.5, 77.2%, 51.5%)" stroke-width="1.5"></path><path d="M393.48 650L393.48 650" stroke="hsl(228.5, 77.2%, 51.5%)" stroke-width="1.5"></path><path d="M393.48 650L533.1 690.85" stroke="hsl(228.5, 77.2%, 51.5%)" stroke-width="1.5"></path><path d="M393.48 650L544.6 505.84" stroke="hsl(228.5, 77.2%, 51.5%)" stroke-width="1.5"></path><path d="M393.48 650L691.03 530.3" stroke="hsl(228.5, 77.2%, 51.5%)" stroke-width="1.5"></path><path d="M544.6 505.84L544.6 505.84" stroke="hsl(228.5, 77.2%, 51.5%)" stroke-width="1.5"></path><path d="M544.6 505.84L691.03 530.3" stroke="hsl(228.5, 77.2%, 51.5%)" stroke-width="1.5"></path><path d="M544.6 505.84L662.21 399.21" stroke="hsl(228.5, 77.2%, 51.5%)" stroke-width="1.5"></path><path d="M544.6 505.84L533.1 690.85" stroke="hsl(228.5, 77.2%, 51.5%)" stroke-width="1.5"></path><path d="M533.1 690.85L533.1 690.85" stroke="hsl(228.5, 77.2%, 51.5%)" stroke-width="1.5"></path><path d="M533.1 690.85L712.18 709.79" stroke="hsl(228.5, 77.2%, 51.5%)" stroke-width="1.5"></path><path d="M662.21 399.21L662.21 399.21" stroke="hsl(228.5, 77.2%, 51.5%)" stroke-width="1.5"></path><path d="M662.21 399.21L691.03 530.3" stroke="hsl(228.5, 77.2%, 51.5%)" stroke-width="1.5"></path><path d="M691.03 530.3L691.03 530.3" stroke="hsl(228.5, 77.2%, 51.5%)" stroke-width="1.5"></path><path d="M691.03 530.3L793.07 521.01" stroke="hsl(228.5, 77.2%, 51.5%)" stroke-width="1.5"></path><path d="M691.03 530.3L793.82 647.98" stroke="hsl(228.5, 77.2%, 51.5%)" stroke-width="1.5"></path><path d="M691.03 530.3L712.18 709.79" stroke="hsl(228.5, 77.2%, 51.5%)" stroke-width="1.5"></path><path d="M712.18 709.79L712.18 709.79" stroke="hsl(228.5, 77.2%, 51.5%)" stroke-width="1.5"></path><path d="M712.18 709.79L793.82 647.98" stroke="hsl(228.5, 77.2%, 51.5%)" stroke-width="1.5"></path><path d="M856.66 392.46L856.66 392.46" stroke="hsl(228.5, 77.2%, 51.5%)" stroke-width="1.5"></path><path d="M856.66 392.46L938.53 364.61" stroke="hsl(228.5, 77.2%, 51.5%)" stroke-width="1.5"></path><path d="M856.66 392.46L951.21 492.67" stroke="hsl(228.5, 77.2%, 51.5%)" stroke-width="1.5"></path><path d="M856.66 392.46L793.07 521.01" stroke="hsl(228.5, 77.2%, 51.5%)" stroke-width="1.5"></path><path d="M856.66 392.46L662.21 399.21" stroke="hsl(228.5, 77.2%, 51.5%)" stroke-width="1.5"></path><path d="M793.07 521.01L793.07 521.01" stroke="hsl(228.5, 77.2%, 51.5%)" stroke-width="1.5"></path><path d="M793.82 647.98L793.82 647.98" stroke="hsl(228.5, 77.2%, 51.5%)" stroke-width="1.5"></path><path d="M793.82 647.98L793.07 521.01" stroke="hsl(228.5, 77.2%, 51.5%)" stroke-width="1.5"></path><path d="M793.82 647.98L969.45 686.51" stroke="hsl(228.5, 77.2%, 51.5%)" stroke-width="1.5"></path><path d="M793.82 647.98L951.21 492.67" stroke="hsl(228.5, 77.2%, 51.5%)" stroke-width="1.5"></path><path d="M938.53 364.61L938.53 364.61" stroke="hsl(228.5, 77.2%, 51.5%)" stroke-width="1.5"></path><path d="M938.53 364.61L951.21 492.67" stroke="hsl(228.5, 77.2%, 51.5%)" stroke-width="1.5"></path><path d="M938.53 364.61L1131.05 385.17" stroke="hsl(228.5, 77.2%, 51.5%)" stroke-width="1.5"></path><path d="M938.53 364.61L793.07 521.01" stroke="hsl(228.5, 77.2%, 51.5%)" stroke-width="1.5"></path><path d="M938.53 364.61L1144.32 497.11" stroke="hsl(228.5, 77.2%, 51.5%)" stroke-width="1.5"></path><path d="M951.21 492.67L951.21 492.67" stroke="hsl(228.5, 77.2%, 51.5%)" stroke-width="1.5"></path><path d="M951.21 492.67L793.07 521.01" stroke="hsl(228.5, 77.2%, 51.5%)" stroke-width="1.5"></path><path d="M951.21 492.67L1144.32 497.11" stroke="hsl(228.5, 77.2%, 51.5%)" stroke-width="1.5"></path><path d="M969.45 686.51L969.45 686.51" stroke="hsl(228.5, 77.2%, 51.5%)" stroke-width="1.5"></path><path d="M969.45 686.51L1158.13 674.35" stroke="hsl(228.5, 77.2%, 51.5%)" stroke-width="1.5"></path><path d="M969.45 686.51L951.21 492.67" stroke="hsl(228.5, 77.2%, 51.5%)" stroke-width="1.5"></path><path d="M1159.4 239.5L1159.4 239.5" stroke="hsl(228.5, 77.2%, 51.5%)" stroke-width="1.5"></path><path d="M1159.4 239.5L1282.83 222.05" stroke="hsl(228.5, 77.2%, 51.5%)" stroke-width="1.5"></path><path d="M1159.4 239.5L1131.05 385.17" stroke="hsl(228.5, 77.2%, 51.5%)" stroke-width="1.5"></path><path d="M1159.4 239.5L1312.24 411.76" stroke="hsl(228.5, 77.2%, 51.5%)" stroke-width="1.5"></path><path d="M1159.4 239.5L938.53 364.61" stroke="hsl(228.5, 77.2%, 51.5%)" stroke-width="1.5"></path><path d="M1131.05 385.17L1131.05 385.17" stroke="hsl(228.5, 77.2%, 51.5%)" stroke-width="1.5"></path><path d="M1158.13 674.35L1158.13 674.35" stroke="hsl(228.5, 77.2%, 51.5%)" stroke-width="1.5"></path><path d="M1158.13 674.35L1252.04 543.96" stroke="hsl(228.5, 77.2%, 51.5%)" stroke-width="1.5"></path><path d="M1158.13 674.35L1144.32 497.11" stroke="hsl(228.5, 77.2%, 51.5%)" stroke-width="1.5"></path><path d="M1310.59 -104.18L1310.59 -104.18" stroke="hsl(228.5, 77.2%, 51.5%)" stroke-width="1.5"></path><path d="M1310.59 -104.18L1407.98 -38.46" stroke="hsl(228.5, 77.2%, 51.5%)" stroke-width="1.5"></path><path d="M1282.83 222.05L1282.83 222.05" stroke="hsl(228.5, 77.2%, 51.5%)" stroke-width="1.5"></path><path d="M1312.24 411.76L1312.24 411.76" stroke="hsl(228.5, 77.2%, 51.5%)" stroke-width="1.5"></path><path d="M1312.24 411.76L1252.04 543.96" stroke="hsl(228.5, 77.2%, 51.5%)" stroke-width="1.5"></path><path d="M1312.24 411.76L1425.08 555.26" stroke="hsl(228.5, 77.2%, 51.5%)" stroke-width="1.5"></path><path d="M1312.24 411.76L1131.05 385.17" stroke="hsl(228.5, 77.2%, 51.5%)" stroke-width="1.5"></path><path d="M1252.04 543.96L1252.04 543.96" stroke="hsl(228.5, 77.2%, 51.5%)" stroke-width="1.5"></path><path d="M1252.04 543.96L1425.08 555.26" stroke="hsl(228.5, 77.2%, 51.5%)" stroke-width="1.5"></path><path d="M1407.98 -38.46L1407.98 -38.46" stroke="hsl(228.5, 77.2%, 51.5%)" stroke-width="1.5"></path><path d="M1407.98 -38.46L1444.38 66.57" stroke="hsl(228.5, 77.2%, 51.5%)" stroke-width="1.5"></path><path d="M1407.98 -38.46L1609.55 -64.06" stroke="hsl(228.5, 77.2%, 51.5%)" stroke-width="1.5"></path><path d="M1407.98 -38.46L1596.35 87.94" stroke="hsl(228.5, 77.2%, 51.5%)" stroke-width="1.5"></path><path d="M1444.38 66.57L1444.38 66.57" stroke="hsl(228.5, 77.2%, 51.5%)" stroke-width="1.5"></path><path d="M1444.38 66.57L1596.35 87.94" stroke="hsl(228.5, 77.2%, 51.5%)" stroke-width="1.5"></path><path d="M1425.08 555.26L1425.08 555.26" stroke="hsl(228.5, 77.2%, 51.5%)" stroke-width="1.5"></path><path d="M1425.08 555.26L1440.64 665.67" stroke="hsl(228.5, 77.2%, 51.5%)" stroke-width="1.5"></path><path d="M1425.08 555.26L1574.59 489.34" stroke="hsl(228.5, 77.2%, 51.5%)" stroke-width="1.5"></path><path d="M1440.64 665.67L1440.64 665.67" stroke="hsl(228.5, 77.2%, 51.5%)" stroke-width="1.5"></path><path d="M1440.64 665.67L1574.59 489.34" stroke="hsl(228.5, 77.2%, 51.5%)" stroke-width="1.5"></path><path d="M1440.64 665.67L1252.04 543.96" stroke="hsl(228.5, 77.2%, 51.5%)" stroke-width="1.5"></path><path d="M1609.55 -64.06L1609.55 -64.06" stroke="hsl(228.5, 77.2%, 51.5%)" stroke-width="1.5"></path><path d="M1609.55 -64.06L1596.35 87.94" stroke="hsl(228.5, 77.2%, 51.5%)" stroke-width="1.5"></path><path d="M1609.55 -64.06L1444.38 66.57" stroke="hsl(228.5, 77.2%, 51.5%)" stroke-width="1.5"></path><path d="M1609.55 -64.06L1608.3 208.65" stroke="hsl(228.5, 77.2%, 51.5%)" stroke-width="1.5"></path><path d="M1609.55 -64.06L1310.59 -104.18" stroke="hsl(228.5, 77.2%, 51.5%)" stroke-width="1.5"></path><path d="M1596.35 87.94L1596.35 87.94" stroke="hsl(228.5, 77.2%, 51.5%)" stroke-width="1.5"></path><path d="M1574.59 489.34L1574.59 489.34" stroke="hsl(228.5, 77.2%, 51.5%)" stroke-width="1.5"></path><path d="M1574.59 489.34L1418.26 357.13" stroke="hsl(228.5, 77.2%, 51.5%)" stroke-width="1.5"></path><path d="M1574.59 489.34L1312.24 411.76" stroke="hsl(228.5, 77.2%, 51.5%)" stroke-width="1.5"></path><path d="M1574.59 489.34L1608.3 208.65" stroke="hsl(228.5, 77.2%, 51.5%)" stroke-width="1.5"></path><circle r="25" cx="1128.22" cy="108.05" fill="url(&quot;#SvgjsRadialGradient1001&quot;)"></circle><circle r="25" cx="1144.32" cy="497.11" fill="url(&quot;#SvgjsRadialGradient1001&quot;)"></circle><circle r="25" cx="1261.68" cy="72.04" fill="url(&quot;#SvgjsRadialGradient1001&quot;)"></circle><circle r="25" cx="1451.49" cy="234.52" fill="url(&quot;#SvgjsRadialGradient1001&quot;)"></circle><circle r="25" cx="1418.26" cy="357.13" fill="url(&quot;#SvgjsRadialGradient1001&quot;)"></circle><circle r="25" cx="1608.3" cy="208.65" fill="url(&quot;#SvgjsRadialGradient1001&quot;)"></circle><circle r="25" cx="1545.77" cy="709.72" fill="url(&quot;#SvgjsRadialGradient1001&quot;)"></circle><circle r="5" cx="-104.36" cy="513.95" fill="#8b9ad9"></circle><circle r="5" cx="-50.98" cy="695.41" fill="#8b9ad9"></circle><circle r="5" cx="51.76" cy="500.36" fill="#8b9ad9"></circle><circle r="5" cx="46.82" cy="662.04" fill="#8b9ad9"></circle><circle r="5" cx="216.58" cy="537.48" fill="#8b9ad9"></circle><circle r="5" cx="382.53" cy="528.27" fill="#8b9ad9"></circle><circle r="5" cx="393.48" cy="650" fill="#8b9ad9"></circle><circle r="5" cx="544.6" cy="505.84" fill="#8b9ad9"></circle><circle r="5" cx="533.1" cy="690.85" fill="#8b9ad9"></circle><circle r="5" cx="662.21" cy="399.21" fill="#8b9ad9"></circle><circle r="5" cx="691.03" cy="530.3" fill="#8b9ad9"></circle><circle r="5" cx="712.18" cy="709.79" fill="#8b9ad9"></circle><circle r="5" cx="856.66" cy="392.46" fill="#8b9ad9"></circle><circle r="5" cx="793.07" cy="521.01" fill="#8b9ad9"></circle><circle r="5" cx="793.82" cy="647.98" fill="#8b9ad9"></circle><circle r="5" cx="938.53" cy="364.61" fill="#8b9ad9"></circle><circle r="5" cx="951.21" cy="492.67" fill="#8b9ad9"></circle><circle r="5" cx="969.45" cy="686.51" fill="#8b9ad9"></circle><circle r="5" cx="1159.4" cy="239.5" fill="#8b9ad9"></circle><circle r="5" cx="1131.05" cy="385.17" fill="#8b9ad9"></circle><circle r="5" cx="1158.13" cy="674.35" fill="#8b9ad9"></circle><circle r="5" cx="1310.59" cy="-104.18" fill="#8b9ad9"></circle><circle r="5" cx="1282.83" cy="222.05" fill="#8b9ad9"></circle><circle r="5" cx="1312.24" cy="411.76" fill="#8b9ad9"></circle><circle r="5" cx="1252.04" cy="543.96" fill="#8b9ad9"></circle><circle r="5" cx="1407.98" cy="-38.46" fill="#8b9ad9"></circle><circle r="5" cx="1444.38" cy="66.57" fill="#8b9ad9"></circle><circle r="5" cx="1425.08" cy="555.26" fill="#8b9ad9"></circle><circle r="5" cx="1440.64" cy="665.67" fill="#8b9ad9"></circle><circle r="5" cx="1609.55" cy="-64.06" fill="#8b9ad9"></circle><circle r="5" cx="1596.35" cy="87.94" fill="#8b9ad9"></circle><circle r="5" cx="1574.59" cy="489.34" fill="#8b9ad9"></circle></g><defs><mask id="SvgjsMask1000"><rect width="1440" height="560" fill="#ffffff"></rect></mask><radialGradient id="SvgjsRadialGradient1001"><stop stop-color="#ffffff" offset="0.1"></stop><stop stop-color="#1735b3" offset="0.2"></stop><stop stop-color="rgba(23, 53, 179, 0)" offset="1"></stop></radialGradient></defs></svg>